{"glyphs":{":":{"x_min":0,"x_max":260,"ha":260,"o":"m 50 326 q 50 358 73 381 q 96 404 128 404 q 160 404 183 381 q 206 358 206 326 q 206 294 183 271 q 160 249 128 249 q 96 249 73 271 q 50 294 50 326 z m 52 70 q 52 102 74 125 q 97 148 129 148 q 161 148 184 125 q 207 102 207 70 q 207 38 184 16 q 161 -7 129 -7 q 97 -7 74 16 q 52 38 52 70 z"},"$":{"x_min":0,"x_max":531,"ha":531,"o":"m 232 731 l 303 731 l 303 648 q 380 644 476 573 l 406 482 q 342 527 303 534 l 303 373 q 396 348 442 296 q 487 244 487 177 q 487 104 440 55 q 393 5 304 -10 l 304 -157 l 233 -157 l 233 -7 q 166 0 127 17 q 89 34 48 69 l 111 162 q 182 114 232 106 l 232 258 q 127 300 92 346 q 56 392 56 458 q 56 521 102 582 q 147 642 232 651 z m 231 396 l 231 539 q 209 535 195 515 q 180 495 180 474 q 180 424 231 396 z m 305 237 l 304 236 l 304 99 q 361 109 361 162 q 361 212 305 237 z"},"?":{"x_min":0,"x_max":479,"ha":479,"o":"m 306 251 l 306 218 l 169 218 l 169 350 l 194 350 q 250 350 284 376 q 318 401 318 444 q 318 477 292 501 q 267 526 234 526 q 204 526 182 503 q 160 480 160 450 l 160 440 l 23 440 l 23 446 q 23 528 89 589 q 155 650 245 650 q 330 650 392 590 q 454 530 454 448 q 454 387 417 329 q 380 271 306 251 z m 161 70 q 161 102 184 124 q 207 147 238 147 q 270 147 292 124 q 315 102 315 70 q 315 38 292 15 q 270 -8 238 -8 q 207 -8 184 15 q 161 38 161 70 z"},"<":{"x_min":0,"x_max":667,"ha":667,"o":"m 605 56 l 62 283 l 62 377 l 605 604 l 605 491 l 205 330 l 605 170 z"},"'":{"x_min":0,"x_max":238,"ha":238,"o":"m 70 461 l 44 595 l 44 716 l 194 716 l 194 595 l 171 461 z"},"=":{"x_min":0,"x_max":667,"ha":667,"o":"m 62 500 l 605 500 l 605 395 l 62 395 z m 62 267 l 605 267 l 605 162 l 62 162 z"},"a":{"x_min":0,"x_max":528,"ha":528,"o":"m 338 0 l 338 72 l 336 72 q 307 30 277 11 q 247 -8 203 -8 q 129 -8 78 56 q 26 119 26 210 q 26 300 81 364 q 136 428 212 428 q 248 428 277 412 q 306 396 338 361 l 338 419 l 463 419 l 463 0 z m 246 303 q 209 303 184 274 q 159 244 159 199 q 159 157 183 132 q 207 106 245 106 q 282 106 309 135 q 335 165 335 207 q 335 246 309 275 q 282 303 246 303 z"},"L":{"x_min":0,"x_max":427,"ha":427,"o":"m 68 641 l 205 641 l 205 138 l 394 138 l 394 0 l 68 0 z"},"3":{"x_min":0,"x_max":531,"ha":531,"o":"m 176 445 l 50 445 q 56 530 113 582 q 169 634 249 634 q 336 634 398 584 q 459 535 459 465 q 459 389 384 327 q 432 297 454 264 q 476 231 476 185 q 476 98 418 45 q 360 -8 264 -8 q 175 -8 117 43 q 59 93 45 183 l 174 183 q 197 94 262 94 q 295 94 317 117 q 340 141 340 175 q 340 217 313 243 q 286 270 243 270 l 220 270 l 220 375 l 234 375 q 278 375 305 397 q 332 419 332 455 q 332 488 311 511 q 290 534 259 534 q 187 534 176 445 z"},";":{"x_min":0,"x_max":260,"ha":260,"o":"m 62 327 q 62 359 85 382 q 108 405 140 405 q 172 405 195 382 q 218 359 218 327 q 218 295 195 272 q 172 249 140 249 q 108 249 85 272 q 62 295 62 327 z m 77 146 l 202 146 l 100 -124 l 28 -124 z"},"J":{"x_min":0,"x_max":427,"ha":427,"o":"m 225 641 l 362 641 l 362 187 q 362 99 313 45 q 264 -9 185 -9 q 128 -9 83 25 q 38 59 13 128 l 114 204 l 114 202 q 115 202 124 181 q 132 160 146 143 q 159 126 175 126 q 198 126 211 145 q 225 164 225 196 z"},"V":{"x_min":0,"x_max":635,"ha":635,"o":"m 12 641 l 152 641 l 314 215 l 476 641 l 616 641 l 374 0 l 254 0 z"},"\"":{"x_min":0,"x_max":474,"ha":474,"o":"m 78 461 l 52 595 l 52 716 l 202 716 l 202 595 l 179 461 z m 299 461 l 273 595 l 273 716 l 422 716 l 422 595 l 400 461 z"},"7":{"x_min":0,"x_max":531,"ha":531,"o":"m 26 623 l 519 623 l 122 -19 l 11 51 l 294 510 l 26 510 z"},"S":{"x_min":0,"x_max":476,"ha":476,"o":"m 425 583 l 339 489 q 271 529 241 529 q 218 529 202 511 q 185 494 185 470 q 185 423 271 388 q 334 361 366 340 q 398 318 420 279 q 442 241 442 196 q 442 113 375 52 q 309 -9 218 -9 q 118 -9 21 85 l 112 191 q 173 128 226 128 q 251 128 274 150 q 297 172 297 197 q 297 247 191 285 q 130 307 105 326 q 80 346 62 383 q 45 419 45 458 q 45 543 101 597 q 156 650 246 650 q 353 650 425 583 z"},"}":{"x_min":0,"x_max":389,"ha":389,"o":"m 358 309 l 358 191 q 312 189 290 172 q 269 155 260 122 q 251 88 251 16 l 251 -1 q 251 -97 239 -129 q 227 -160 208 -177 q 189 -193 160 -206 q 131 -219 50 -219 l 24 -219 l 24 -102 l 31 -102 q 87 -102 106 -90 q 124 -78 124 -32 q 124 102 141 160 q 158 218 215 250 q 160 283 143 331 q 125 379 124 532 q 124 578 106 590 q 89 602 30 602 l 24 602 l 24 719 l 50 719 q 120 719 154 708 q 188 697 211 673 q 233 649 242 614 q 251 579 251 501 l 251 484 q 251 365 281 336 q 310 308 358 309 z"},"Z":{"x_min":0,"x_max":583,"ha":583,"o":"m 73 641 l 538 641 l 249 133 l 528 133 l 528 0 l 35 0 l 326 510 l 73 510 z"},"x":{"x_min":0,"x_max":531,"ha":531,"o":"m 26 420 l 179 420 l 264 315 l 348 420 l 501 420 l 340 219 l 516 0 l 362 0 l 264 123 l 165 0 l 11 0 l 186 219 z"},")":{"x_min":0,"x_max":313,"ha":313,"o":"m 36 602 l 108 662 q 183 572 216 464 q 249 356 249 252 q 249 12 110 -161 l 36 -100 q 153 53 153 251 q 153 449 36 602 z"},"&":{"x_min":0,"x_max":633,"ha":633,"o":"m 339 315 l 426 213 l 495 281 l 560 204 q 558 201 528 170 q 498 138 491 137 l 609 0 l 452 0 l 399 61 q 324 18 291 4 q 258 -10 222 -10 q 182 -10 139 7 q 96 24 71 64 q 46 104 46 150 q 46 255 182 325 q 122 398 122 470 q 122 530 170 574 q 217 618 284 618 q 354 618 402 575 q 449 533 449 470 q 449 418 409 378 q 370 338 339 315 z m 279 388 q 340 436 340 476 q 340 500 326 514 q 312 528 288 528 q 266 528 252 512 q 238 497 238 473 q 238 444 279 388 z m 286 194 q 283 197 268 216 q 252 235 243 244 q 190 197 190 155 q 190 134 206 119 q 222 103 244 103 q 276 103 331 141 z"},"_":{"x_min":0,"x_max":500,"ha":500,"o":"m -7 -124 l -7 -74 l 507 -74 l 507 -124 z"},"v":{"x_min":0,"x_max":531,"ha":531,"o":"m 17 420 l 149 420 l 264 174 l 379 420 l 510 420 l 315 0 l 213 0 z"},"O":{"x_min":0,"x_max":740,"ha":740,"o":"m 44 321 q 44 463 138 555 q 232 648 361 648 q 503 648 597 555 q 690 462 690 320 q 690 179 598 85 q 505 -8 365 -8 q 225 -8 135 85 q 44 178 44 321 z m 367 520 q 287 521 237 464 q 188 407 188 317 q 188 231 238 175 q 289 119 365 119 q 446 119 495 175 q 545 230 545 321 q 545 410 496 464 q 448 519 367 520 z"},"(":{"x_min":0,"x_max":313,"ha":313,"o":"m 200 662 l 271 602 q 267 596 259 584 q 155 437 155 252 q 155 157 179 76 q 203 -5 271 -100 l 200 -161 q 126 -73 92 37 q 58 146 58 256 q 58 360 92 465 q 125 571 200 662 z"},"C":{"x_min":0,"x_max":583,"ha":583,"o":"m 544 607 l 544 450 q 440 513 362 513 q 284 513 237 459 q 190 406 190 315 q 190 229 239 177 q 289 126 371 126 q 443 126 544 184 l 544 29 q 431 -9 356 -9 q 227 -9 136 86 q 46 181 46 318 q 46 457 138 553 q 230 650 362 650 q 447 650 544 607 z"},"W":{"x_min":0,"x_max":792,"ha":792,"o":"m 16 641 l 139 641 l 242 204 l 350 641 l 438 641 l 544 202 l 649 641 l 772 641 l 617 0 l 487 0 l 393 393 l 299 0 l 169 0 z"},"A":{"x_min":0,"x_max":688,"ha":688,"o":"m 287 641 l 394 641 l 656 0 l 517 0 l 465 126 l 219 126 l 169 0 l 31 0 z m 341 431 l 266 242 l 418 242 z"},"f":{"x_min":0,"x_max":313,"ha":313,"o":"m 292 636 l 292 516 q 264 535 243 535 q 217 535 200 516 q 184 497 184 467 l 184 420 l 291 420 l 291 306 l 183 306 l 183 0 l 58 0 l 58 306 l 21 306 l 21 420 l 58 420 l 58 471 q 58 578 104 616 q 149 654 210 654 q 258 654 292 636 z"},"Q":{"x_min":0,"x_max":740,"ha":740,"o":"m 599 86 l 678 -5 l 585 -64 l 513 23 q 432 -7 368 -7 q 226 -7 135 88 q 44 182 44 330 q 44 452 133 551 q 221 649 367 649 q 504 649 597 555 q 691 461 691 324 q 691 184 599 86 z m 423 128 l 355 208 l 446 267 l 508 194 q 546 236 546 317 q 546 410 497 466 q 448 521 367 521 q 289 521 239 466 q 189 411 189 324 q 189 236 237 179 q 285 122 358 122 q 385 122 423 128 z"},"w":{"x_min":0,"x_max":792,"ha":792,"o":"m 11 420 l 143 420 l 256 171 l 356 420 l 437 420 l 536 173 l 648 420 l 780 420 l 589 0 l 488 0 l 397 230 l 304 0 l 202 0 z"},"-":{"x_min":0,"x_max":313,"ha":313,"o":"m 14 273 l 296 273 l 296 147 l 14 147 z"},"E":{"x_min":0,"x_max":479,"ha":479,"o":"m 66 641 l 427 641 l 427 514 l 204 514 l 204 385 l 427 385 l 427 260 l 204 260 l 204 127 l 427 127 l 427 0 l 66 0 z"},"s":{"x_min":0,"x_max":427,"ha":427,"o":"m 368 361 l 283 309 q 247 346 215 346 q 199 346 188 337 q 177 329 177 316 q 177 295 190 286 q 203 277 259 258 q 315 238 347 208 q 380 178 380 124 q 380 70 331 31 q 282 -8 214 -8 q 167 -8 121 18 q 75 44 43 97 l 144 143 q 178 84 215 84 q 231 84 245 95 q 258 105 258 119 q 258 137 243 146 q 228 155 220 155 q 217 158 185 168 q 59 209 59 302 q 59 357 104 393 q 149 428 222 428 q 303 428 368 361 z"},">":{"x_min":0,"x_max":667,"ha":667,"o":"m 62 604 l 605 378 l 605 283 l 62 56 l 62 170 l 462 330 l 62 491 z"},"l":{"x_min":0,"x_max":260,"ha":260,"o":"m 65 652 l 190 652 l 190 0 l 65 0 z"},"8":{"x_min":0,"x_max":531,"ha":531,"o":"m 384 328 q 475 269 475 173 q 475 92 417 42 q 360 -8 267 -8 q 172 -8 114 42 q 55 91 55 171 q 55 269 147 327 q 108 361 90 393 q 72 425 72 467 q 72 534 122 583 q 173 633 264 633 q 353 633 406 588 q 459 544 459 470 q 459 385 384 328 z m 332 449 q 332 479 313 500 q 294 520 266 520 q 238 520 220 501 q 201 482 201 455 q 201 427 220 407 q 238 388 266 388 q 292 388 312 407 q 332 426 332 449 z m 343 192 q 343 225 320 248 q 297 271 264 271 q 233 271 210 247 q 188 223 188 189 q 188 158 211 134 q 234 110 264 110 q 297 110 320 134 q 343 158 343 192 z"},"\\":{"x_min":0,"x_max":365,"ha":365,"o":"m 29 687 l 101 687 l 350 -183 l 281 -183 z"},"e":{"x_min":0,"x_max":479,"ha":479,"o":"m 450 180 l 151 180 q 153 140 177 114 q 202 89 234 89 q 292 89 324 141 l 439 103 q 375 -9 240 -9 q 141 -9 83 51 q 24 111 24 213 q 24 304 86 366 q 147 428 238 428 q 329 428 389 363 q 450 298 450 200 z m 152 264 l 321 264 q 303 343 240 343 q 204 343 180 322 q 157 302 152 264 z"},"b":{"x_min":0,"x_max":531,"ha":531,"o":"m 59 653 l 184 653 l 184 363 q 240 428 311 428 q 386 428 441 363 q 496 298 496 207 q 496 121 442 56 q 388 -8 316 -8 q 280 -8 249 10 q 219 28 183 68 l 183 0 l 59 0 z m 274 303 q 237 303 212 277 q 187 250 187 205 q 187 162 213 134 q 239 106 279 106 q 315 106 339 134 q 363 161 363 203 q 363 244 337 274 q 311 303 274 303 z"},"%":{"x_min":0,"x_max":958,"ha":958,"o":"m 644 700 l 723 700 l 326 -75 l 248 -75 z m 79 482 q 79 581 125 640 q 172 699 248 699 q 322 699 368 639 q 415 579 415 483 q 415 385 369 325 q 323 265 249 265 q 174 265 126 325 q 79 386 79 482 z m 322 475 q 322 569 300 600 q 278 630 248 630 q 206 630 189 594 q 172 559 172 477 q 172 335 248 335 q 322 335 322 475 z m 558 134 q 558 236 604 299 q 650 362 724 362 q 797 362 845 300 q 892 239 892 141 q 892 48 843 -13 q 794 -74 721 -74 q 651 -74 604 -15 q 558 44 558 134 z m 798 140 q 798 218 781 254 q 765 290 727 290 q 650 290 650 142 q 650 67 668 32 q 686 -3 725 -3 q 798 -3 798 140 z"},"m":{"x_min":0,"x_max":792,"ha":792,"o":"m 191 420 l 191 353 q 200 359 217 375 q 234 392 250 404 q 266 415 288 422 q 310 429 328 429 q 357 429 391 409 q 424 389 447 337 q 486 387 523 408 q 561 429 593 429 q 650 429 689 382 q 729 335 729 266 l 729 0 l 604 0 l 604 233 q 604 268 585 291 q 566 315 539 315 q 507 315 483 288 q 460 261 460 224 l 460 0 l 336 0 l 336 227 q 336 264 317 289 q 297 314 270 314 q 238 314 214 286 q 191 259 191 220 l 191 0 l 65 0 l 65 420 z"},"#":{"x_min":0,"x_max":668,"ha":668,"o":"m 38 497 l 189 497 l 230 684 l 322 684 l 281 497 l 454 497 l 494 684 l 587 684 l 547 497 l 629 497 l 629 404 l 529 404 l 498 256 l 629 256 l 629 164 l 481 164 l 440 -21 l 348 -21 l 388 164 l 213 164 l 175 -21 l 82 -21 l 121 164 l 38 164 l 38 256 l 140 256 l 171 404 l 38 404 z m 263 404 l 233 257 l 406 257 l 437 404 z"},",":{"x_min":0,"x_max":260,"ha":260,"o":"m 91 146 l 216 146 l 115 -123 l 43 -123 z"},"n":{"x_min":0,"x_max":531,"ha":531,"o":"m 194 420 l 194 370 q 258 430 328 430 q 388 430 427 381 q 467 332 467 255 l 467 0 l 340 0 l 340 235 q 340 271 320 296 q 300 321 272 321 q 238 321 216 289 q 194 258 194 208 l 194 0 l 69 0 l 69 420 z"},"h":{"x_min":0,"x_max":531,"ha":531,"o":"m 69 652 l 196 652 l 196 371 q 230 400 259 414 q 289 427 327 427 q 393 427 430 379 q 468 332 468 247 l 468 0 l 342 0 l 342 225 q 342 266 321 293 q 300 321 270 321 q 231 321 214 289 q 196 257 196 190 l 196 0 l 69 0 z"},"z":{"x_min":0,"x_max":479,"ha":479,"o":"m 58 420 l 454 420 l 232 115 l 419 115 l 419 0 l 23 0 l 246 306 l 58 306 z"},"B":{"x_min":0,"x_max":530,"ha":530,"o":"m 63 641 l 250 641 q 367 641 410 592 q 453 543 453 478 q 453 437 438 408 q 422 379 387 350 q 454 327 481 282 q 509 238 509 187 q 509 99 448 49 q 388 0 278 0 l 63 0 z m 201 533 l 201 393 l 233 393 q 268 393 292 415 q 316 438 316 470 q 316 497 292 515 q 269 533 234 533 z m 201 284 l 201 108 l 251 108 q 365 108 365 191 q 365 236 337 260 q 310 284 258 284 z"},"K":{"x_min":0,"x_max":635,"ha":635,"o":"m 68 641 l 206 641 l 206 370 l 208 370 l 421 641 l 590 641 l 346 335 l 600 0 l 434 0 l 208 300 l 206 300 l 206 0 l 68 0 z"},"R":{"x_min":0,"x_max":583,"ha":583,"o":"m 64 641 l 275 641 q 371 641 427 590 q 483 540 483 453 q 483 404 457 351 q 432 297 363 267 l 542 0 l 384 0 l 218 248 l 202 248 l 202 0 l 64 0 z m 203 527 l 203 360 l 233 360 q 341 360 341 448 q 341 484 313 506 q 285 527 235 527 z"},"T":{"x_min":0,"x_max":479,"ha":479,"o":"m 21 641 l 452 641 l 452 505 l 305 505 l 305 0 l 167 0 l 167 505 l 21 505 z"},"P":{"x_min":0,"x_max":531,"ha":531,"o":"m 68 641 l 287 641 q 375 641 430 590 q 484 538 484 454 q 484 399 457 349 q 431 300 377 275 q 323 251 285 250 l 205 248 l 205 0 l 68 0 z m 203 526 l 203 362 l 257 362 q 292 362 316 387 q 341 412 341 446 q 341 485 313 506 q 285 528 234 528 z"},"|":{"x_min":0,"x_max":588,"ha":588,"o":"m 241 696 l 347 696 l 347 -135 l 241 -135 z"},"t":{"x_min":0,"x_max":260,"ha":260,"o":"m 59 564 l 184 564 l 184 420 l 244 420 l 244 305 l 184 305 l 184 0 l 59 0 l 59 305 l 11 305 l 11 420 l 59 420 z"},"M":{"x_min":0,"x_max":792,"ha":792,"o":"m 111 641 l 275 641 l 395 257 l 515 641 l 674 641 l 756 0 l 624 0 l 568 451 l 427 0 l 364 0 l 219 455 l 166 0 l 32 0 z"},"g":{"x_min":0,"x_max":529,"ha":529,"o":"m 339 24 l 339 73 q 283 2 209 2 q 130 2 77 63 q 24 124 24 216 q 24 305 79 367 q 134 429 211 429 q 276 429 339 361 l 339 419 l 463 419 l 463 -6 q 463 -41 441 -87 q 418 -132 365 -154 q 312 -176 241 -176 q 154 -176 101 -143 q 49 -110 26 -31 l 166 -31 q 207 -88 255 -88 q 292 -88 315 -57 q 339 -26 339 24 z m 157 212 q 157 180 185 150 q 213 119 251 119 q 288 119 314 148 q 340 177 340 219 q 340 262 315 290 q 290 318 251 318 q 211 318 184 289 q 157 260 157 212 z"},"j":{"x_min":0,"x_max":260,"ha":260,"o":"m 52 576 q 52 608 75 630 q 98 653 130 653 q 162 653 185 630 q 207 608 207 576 q 207 544 185 521 q 162 498 130 498 q 98 498 75 521 q 52 544 52 576 z m 66 419 l 192 419 l 192 -185 l 66 -185 z"},"i":{"x_min":0,"x_max":260,"ha":260,"o":"m 49 575 q 49 607 72 630 q 95 653 127 653 q 159 653 182 630 q 205 607 205 575 q 205 543 182 520 q 159 497 127 497 q 95 497 72 520 q 49 543 49 575 z m 65 420 l 190 420 l 190 0 l 65 0 z"},"y":{"x_min":0,"x_max":531,"ha":531,"o":"m 25 419 l 158 419 l 279 175 l 386 419 l 514 419 l 253 -185 l 123 -185 l 217 30 z"},"@":{"x_min":0,"x_max":975,"ha":975,"o":"m 866 9 l 970 9 q 917 -98 806 -154 q 695 -210 541 -210 l 538 -210 q 299 -210 163 -91 q 28 27 28 235 q 28 376 96 497 q 165 617 278 672 q 392 728 528 728 q 714 728 829 624 q 944 519 944 352 q 944 208 848 104 q 753 0 622 0 q 544 0 532 56 q 475 0 400 0 q 316 0 264 58 q 212 115 212 209 q 212 324 285 427 q 358 529 476 529 q 562 529 605 463 l 617 517 l 745 517 l 672 167 q 665 134 665 123 q 665 100 684 100 q 709 100 752 134 q 795 168 826 228 q 856 289 856 357 q 856 483 765 561 q 675 639 526 639 q 396 639 302 584 q 208 530 163 430 q 117 331 117 229 q 117 67 228 -27 q 338 -121 530 -121 q 764 -121 866 9 z m 338 210 l 338 203 q 338 151 362 120 q 386 89 425 89 q 495 89 536 167 q 578 246 578 327 q 578 379 553 410 q 528 441 487 441 q 425 441 382 375 q 338 310 338 210 z"},".":{"x_min":0,"x_max":260,"ha":260,"o":"m 51 70 q 51 102 74 125 q 97 148 129 148 q 161 148 184 125 q 207 102 207 70 q 207 38 184 15 q 161 -8 129 -8 q 97 -8 74 15 q 51 38 51 70 z"},"p":{"x_min":0,"x_max":531,"ha":531,"o":"m 187 419 l 187 358 l 189 358 q 216 395 246 411 q 275 428 317 428 q 392 428 445 362 q 498 296 498 202 q 498 116 447 54 q 395 -8 324 -8 q 281 -8 251 10 q 222 28 191 68 l 189 68 l 189 -185 l 62 -185 l 62 419 z m 367 203 q 367 244 341 274 q 314 303 278 303 q 242 303 216 274 q 191 245 191 203 q 191 163 218 134 q 244 105 282 105 q 319 105 343 132 q 367 160 367 203 z"},"X":{"x_min":0,"x_max":635,"ha":635,"o":"m 39 641 l 186 641 l 315 445 l 448 641 l 591 641 l 388 336 l 611 0 l 468 0 l 316 228 l 164 0 l 18 0 l 243 335 z"},"*":{"x_min":0,"x_max":427,"ha":427,"o":"m 225 493 l 237 486 q 264 502 305 550 q 326 575 350 575 q 368 575 379 563 q 391 551 391 533 q 391 512 374 501 q 356 491 316 483 q 275 475 249 462 l 249 448 q 262 439 302 432 q 343 424 367 415 q 390 405 390 378 q 390 361 378 349 q 367 337 350 337 q 334 337 320 348 q 305 359 281 388 q 256 417 238 430 l 224 421 q 224 407 246 338 q 252 318 252 306 q 252 286 240 272 q 229 259 212 259 q 193 259 182 271 q 170 284 170 305 q 170 318 176 334 l 191 374 q 199 398 199 411 l 199 422 l 188 429 q 185 425 176 419 q 167 412 143 385 q 120 357 107 347 q 94 337 74 337 q 59 337 47 350 q 35 363 35 379 q 35 395 52 409 q 69 423 92 427 l 125 432 q 153 437 176 449 l 175 465 q 153 476 108 484 q 63 491 49 506 q 35 521 35 535 q 35 551 47 563 q 60 576 75 576 q 97 576 120 551 l 153 515 q 160 506 186 486 l 199 493 l 199 501 q 199 521 180 571 q 171 593 171 608 q 171 628 182 641 q 193 654 210 654 q 229 654 241 641 q 253 628 253 610 q 253 598 250 590 q 225 515 225 509 z"},"Y":{"x_min":0,"x_max":583,"ha":583,"o":"m 16 641 l 169 641 l 287 442 l 407 641 l 561 641 l 357 300 l 357 0 l 220 0 l 220 300 z"},"c":{"x_min":0,"x_max":404,"ha":404,"o":"m 364 145 l 364 20 q 299 -9 257 -9 q 162 -9 99 54 q 35 116 35 210 q 35 304 94 366 q 153 428 243 428 q 306 428 365 399 l 365 281 q 311 307 265 307 q 223 307 198 281 q 172 256 172 214 q 172 172 197 147 q 223 121 264 121 q 302 121 364 145 z"},"!":{"x_min":0,"x_max":208,"ha":208,"o":"m 32 642 l 171 642 l 171 219 l 32 219 z m 24 70 q 24 103 47 126 q 69 149 102 149 q 134 149 157 126 q 180 103 180 70 q 180 38 157 15 q 134 -8 102 -8 q 69 -8 47 15 q 24 38 24 70 z"},"/":{"x_min":0,"x_max":365,"ha":365,"o":"m 278 689 l 351 689 l 102 -184 l 29 -184 z"},"[":{"x_min":0,"x_max":313,"ha":313,"o":"m 78 652 l 288 652 l 288 569 l 168 569 l 168 -70 l 286 -70 l 286 -152 l 78 -152 z"},"6":{"x_min":0,"x_max":531,"ha":531,"o":"m 233 623 l 397 623 l 243 413 q 275 419 301 419 q 381 419 440 359 q 498 299 498 216 q 498 119 429 56 q 360 -8 255 -8 q 157 -8 94 54 q 30 117 30 213 q 30 282 62 355 q 93 428 132 482 z m 356 217 q 356 259 329 287 q 302 316 263 316 q 221 316 191 287 q 162 258 162 216 q 162 174 191 146 q 220 117 263 117 q 301 117 329 146 q 356 176 356 217 z"},"r":{"x_min":0,"x_max":313,"ha":313,"o":"m 178 420 l 178 358 l 180 358 q 199 389 223 407 q 248 426 269 426 q 282 426 292 424 l 292 287 q 276 290 261 290 q 223 290 201 263 q 180 236 180 187 l 180 0 l 53 0 l 53 420 z"},"2":{"x_min":0,"x_max":531,"ha":531,"o":"m 307 116 l 484 116 l 484 0 l 49 0 l 262 270 q 308 330 328 368 q 348 406 348 439 q 348 475 324 499 q 300 522 265 522 q 224 522 205 492 q 187 463 183 400 l 44 400 q 44 513 111 575 q 178 637 276 637 q 368 637 426 584 q 484 530 484 447 q 484 365 417 266 l 379 212 q 357 179 324 137 z"},"{":{"x_min":0,"x_max":389,"ha":389,"o":"m 31 191 l 31 309 q 78 311 99 328 q 120 345 129 378 q 138 412 138 484 l 138 501 q 138 583 148 618 q 158 654 181 676 q 204 699 239 709 q 273 719 339 719 l 365 719 l 365 602 l 359 602 q 300 602 282 590 q 265 578 265 532 q 263 366 243 323 q 223 280 174 250 q 233 216 249 156 q 265 95 265 -32 q 265 -78 283 -90 q 302 -102 358 -102 l 365 -102 l 365 -219 l 339 -219 q 253 -219 213 -198 q 174 -178 156 -142 q 138 -106 138 -1 l 138 16 q 138 131 110 162 q 82 192 31 191 z"},"9":{"x_min":0,"x_max":531,"ha":531,"o":"m 293 0 l 127 0 l 282 211 q 238 206 226 206 q 144 206 87 266 q 30 327 30 415 q 30 507 100 570 q 169 633 273 633 q 372 633 434 570 q 496 506 496 406 q 496 333 460 259 q 423 186 398 150 z m 364 407 q 364 449 335 477 q 307 506 264 506 q 227 506 199 477 q 172 447 172 407 q 172 367 199 339 q 227 311 266 311 q 306 311 335 339 q 364 368 364 407 z"}," ":{"x_min":0,"x_max":266,"ha":266,"o":""},"I":{"x_min":0,"x_max":260,"ha":260,"o":"m 58 641 l 196 641 l 196 0 l 58 0 z"},"H":{"x_min":0,"x_max":635,"ha":635,"o":"m 64 641 l 202 641 l 202 394 l 429 394 l 429 641 l 567 641 l 567 0 l 429 0 l 429 255 l 202 255 l 202 0 l 64 0 z"},"4":{"x_min":0,"x_max":531,"ha":531,"o":"m 300 623 l 426 623 l 426 263 l 485 263 l 485 149 l 426 149 l 426 0 l 289 0 l 289 149 l 12 149 l 12 264 z m 287 466 l 127 263 l 289 263 l 289 466 z"},"~":{"x_min":0,"x_max":656,"ha":656,"o":"m 599 437 l 599 328 q 517 260 451 260 q 418 260 389 270 q 360 280 299 309 q 237 339 205 339 q 135 339 57 267 l 57 376 q 135 443 212 443 q 241 443 270 434 q 298 424 343 403 q 388 381 411 373 q 434 365 456 365 q 519 365 599 437 z"},"D":{"x_min":0,"x_max":635,"ha":635,"o":"m 62 641 l 281 641 q 421 641 506 553 q 592 464 592 320 q 592 175 504 87 q 416 0 269 0 l 62 0 z m 201 520 l 201 124 l 256 124 q 341 124 396 170 q 450 217 450 325 q 450 388 424 437 q 397 485 347 503 q 297 520 252 520 z"},"^":{"x_min":0,"x_max":584,"ha":584,"o":"m 56 338 l 240 728 l 349 728 l 528 338 l 389 338 l 292 577 l 196 338 z"},"0":{"x_min":0,"x_max":531,"ha":531,"o":"m 266 632 q 377 632 443 547 q 509 462 509 320 q 509 154 436 73 q 362 -7 266 -7 q 156 -7 88 79 q 20 165 20 304 q 20 453 87 542 q 153 632 262 632 z m 378 308 q 378 403 348 457 q 317 511 266 511 q 212 511 182 457 q 151 403 151 306 q 151 218 182 166 q 213 113 264 113 q 316 113 347 166 q 378 218 378 308 z"},"F":{"x_min":0,"x_max":479,"ha":479,"o":"m 66 641 l 427 641 l 427 517 l 203 517 l 203 386 l 427 386 l 427 261 l 204 261 l 204 0 l 66 0 z"},"`":{"x_min":0,"x_max":333,"ha":333,"o":"m 242 484 l 155 484 l 21 630 l 174 630 z"},"k":{"x_min":0,"x_max":479,"ha":479,"o":"m 56 652 l 180 652 l 180 256 l 304 420 l 454 420 l 315 235 l 466 0 l 325 0 l 180 222 l 180 0 l 56 0 z"},"u":{"x_min":0,"x_max":531,"ha":531,"o":"m 58 419 l 185 419 l 185 218 q 185 174 207 145 q 229 116 262 116 q 297 116 321 144 q 344 172 344 215 l 344 419 l 471 419 l 471 175 q 471 97 412 45 q 353 -8 264 -8 q 170 -8 114 45 q 58 98 58 185 z"},"]":{"x_min":0,"x_max":313,"ha":313,"o":"m 21 652 l 229 652 l 229 -152 l 21 -152 l 21 -70 l 140 -70 l 140 569 l 21 569 z"},"U":{"x_min":0,"x_max":635,"ha":635,"o":"m 65 641 l 201 641 l 201 249 q 201 194 231 161 q 262 128 311 128 q 368 128 399 161 q 430 195 430 256 l 430 641 l 566 641 l 566 226 q 566 171 538 113 q 509 54 450 22 q 392 -9 319 -9 q 187 -9 126 65 q 65 138 65 219 z"},"o":{"x_min":0,"x_max":531,"ha":531,"o":"m 48 209 q 48 306 110 368 q 172 429 269 429 q 359 429 421 366 q 482 304 482 211 q 482 116 421 54 q 359 -9 267 -9 q 163 -9 105 57 q 48 124 48 209 z m 359 209 q 359 251 331 283 q 303 315 266 315 q 228 315 200 285 q 172 255 172 214 q 172 168 199 137 q 227 105 266 105 q 303 105 331 136 q 359 167 359 209 z"},"N":{"x_min":0,"x_max":688,"ha":688,"o":"m 489 641 l 624 641 l 624 0 l 490 0 l 196 415 l 196 0 l 58 0 l 58 641 l 194 641 l 489 229 z"},"+":{"x_min":0,"x_max":667,"ha":667,"o":"m 61 383 l 281 383 l 281 602 l 385 602 l 385 383 l 606 383 l 606 278 l 385 278 l 385 59 l 281 59 l 281 278 l 61 278 z"},"G":{"x_min":0,"x_max":688,"ha":688,"o":"m 610 502 l 518 416 q 489 466 447 490 q 404 515 358 515 q 283 515 227 458 q 172 401 172 323 q 172 241 227 183 q 283 126 361 126 q 403 126 443 147 q 482 169 506 228 l 354 228 l 354 353 l 650 353 l 650 270 q 650 206 606 133 q 562 59 490 25 q 418 -9 345 -9 q 212 -9 121 87 q 30 184 30 325 q 30 459 124 555 q 218 650 350 650 q 519 650 610 502 z"},"q":{"x_min":0,"x_max":528,"ha":528,"o":"m 336 -185 l 336 75 l 334 75 q 304 31 275 12 q 246 -8 202 -8 q 127 -8 75 54 q 23 116 23 205 q 23 299 77 363 q 131 427 208 427 q 250 427 280 409 q 309 392 334 354 l 336 354 l 336 419 l 461 419 l 461 -185 z m 332 203 q 332 242 306 272 q 280 303 247 303 q 208 303 182 274 q 156 245 156 200 q 156 159 180 132 q 204 105 239 105 q 276 105 304 134 q 332 164 332 203 z"},"d":{"x_min":0,"x_max":531,"ha":531,"o":"m 338 652 l 464 652 l 464 0 l 341 0 l 341 72 l 339 72 q 284 -7 203 -7 q 131 -7 80 56 q 29 119 29 210 q 29 301 82 365 q 134 429 208 429 q 250 429 279 414 q 308 398 338 364 z m 246 305 q 215 305 188 277 q 161 249 161 200 q 161 162 185 134 q 208 107 242 107 q 282 107 309 136 q 336 166 336 210 q 336 248 310 277 q 284 305 246 305 z"},"1":{"x_min":0,"x_max":531,"ha":531,"o":"m 130 622 l 332 622 l 332 0 l 196 0 l 196 509 l 106 509 z"},"5":{"x_min":0,"x_max":531,"ha":531,"o":"m 136 624 l 445 624 l 445 510 l 257 510 l 250 436 q 356 436 414 374 q 471 312 471 227 q 471 131 397 61 q 323 -9 222 -9 q 174 -9 138 5 q 102 18 56 49 l 71 191 q 173 123 231 123 q 272 123 304 153 q 335 183 335 223 q 335 268 304 297 q 272 327 225 327 q 169 327 105 300 z"}}}
